<?xml version="1.0" encoding="utf-8"?>
<!-- Generator: Adobe Illustrator 21.1.0, SVG Export Plug-In . SVG Version: 6.00 Build 0)  -->
<svg version="1.1" id="Layer_1" xmlns="http://www.w3.org/2000/svg" xmlns:xlink="http://www.w3.org/1999/xlink" x="0px" y="0px"
	 viewBox="0 0 150 150" style="enable-background:new 0 0 150 150;" xml:space="preserve">
<style type="text/css">
	.st0{fill:#424242;}
</style>
<g>
	<g>
		<g>
			<path class="st0" d="M40.6,69.3c2.2-1.1,4.7-1.9,7.2-1.9c0.7,0,1.2-0.5,1.4-1.1c8.5-22.6,40.6-22.6,49.1,0
				c0.2,0.6,0.7,1.1,1.4,1.1c6.1,0,11.6,1.6,15.3,6.9c3.6,5.1,3.8,12.1,0.7,17.4c-3.6,6.2-11.2,9.4-18.2,7.5
				c-5.2-1.4-5.6-4.9-10.2-2c-6.3,3.8-14,4.8-21.1,2.7c-2.4-0.7-5-3.1-7.4-3.3c-1.4-0.1-2.5,1-3.7,1.6C39.8,105.4,26.3,87.4,35.2,74
				c1.1-1.6-1.5-3.1-2.6-1.5c-6,9.1-4,21.4,5.4,27.4c4.5,2.8,10.1,3.7,15.3,2.3c1.1-0.3,2.2-0.7,3.2-1.2c2.3-1.1,1.5-1.2,3.6-0.3
				c3.1,1.3,5.9,2.6,9.2,3.1c5.7,0.9,11.5,0,16.8-2.4c0.7-0.3,3.4-2.5,4.2-2.5c0.6,0,2.6,1.9,3.3,2.2c2.5,1.2,5.4,1.9,8.2,1.9
				c10.2,0,18.8-8.3,19.2-18.5c0.5-12.3-9.8-19.8-21.2-19.8c0.5,0.4,1,0.7,1.4,1.1C96.9,54.1,86.3,46,73.8,46
				c-12.5,0-23.1,8-27.4,19.6c0.5-0.4,1-0.7,1.4-1.1c-3.1,0-6,1-8.7,2.3C37.3,67.6,38.8,70.2,40.6,69.3L40.6,69.3z"/>
		</g>
	</g>
</g>
</svg>
