<?xml version="1.0" encoding="utf-8"?>
<!-- Generator: Adobe Illustrator 21.1.0, SVG Export Plug-In . SVG Version: 6.00 Build 0)  -->
<svg version="1.1" id="Layer_1" xmlns="http://www.w3.org/2000/svg" xmlns:xlink="http://www.w3.org/1999/xlink" x="0px" y="0px"
	 viewBox="0 0 100 100" style="enable-background:new 0 0 100 100;" xml:space="preserve">
<style type="text/css">
	.st0{fill:#424242;}
</style>
<g>
	<g>
		<path class="st0" d="M86.1,50c-0.3,15.1-9.6,28.9-24,34C48,89,31.9,84.6,22.3,73.1c-9.7-11.5-11.1-28.4-3.5-41.3
			C26.5,18.7,42.1,11.6,57,14.6C73.9,18,85.8,32.9,86.1,50c0,1.9,3,1.9,3,0c-0.3-16.3-10.2-30.9-25.6-36.7
			c-15.6-5.8-33.8-0.6-44.1,12.4C9.5,38.2,8.2,56,16.3,69.7c8.3,14.1,24.8,21.6,40.9,18.7C75.7,85,88.7,68.6,89.1,50
			C89.1,48.1,86.1,48.1,86.1,50z"/>
	</g>
</g>
<g>
	<g>
		<g>
			<path class="st0" d="M32.4,45.6c1.1-0.7,2.3-1,3.6-0.9c0.5,0,0.8-0.3,1-0.8c4.6-11.3,20.2-11.3,24.7,0c0.2,0.4,0.5,0.8,1,0.8
				c7.8,0,12.9,9.7,5.5,14.7c-4.7,3.1-8-1.9-12.2,0.2c-4.1,2-8.1,2.2-12.4,0.5c-0.9-0.4-1.3-0.9-2.3-0.9c-0.9,0-1.8,1-2.6,1.2
				c-2,0.7-4,0.4-5.9-0.4c-4.9-2.2-5.7-7.8-3.1-12c0.7-1.2-1.1-2.2-1.8-1.1c-2.8,4.5-2.4,10.1,1.8,13.6c2.2,1.8,5.1,2.7,7.9,2.3
				c1-0.1,1.9-0.7,2.9-0.9c1.7-0.2,2.1,0.4,3.7,0.7c3.4,0.8,6.4,1.2,9.9,0.1c1.8-0.6,2.6-1.4,4.6-1.2c0.9,0.1,2.5,1.1,3.4,1.2
				c5,0.8,9.9-2.3,11.3-7.1c1.4-4.7-0.9-9.9-5.4-12.1c-1-0.5-2-0.7-3-0.9c-0.7-0.1-1.4-0.1-2.1-0.1c0.3-0.2,0.3-0.5,0.2-0.7
				c-2-2.1-2.9-4.6-5.5-6.3c-4.6-3-10.6-3.2-15.4-0.7c-2.3,1.2-5,3.4-6,5.8c-0.9,2.2-0.1,1.2-1.8,2.1c-0.8,0.4-2.2,0.7-3,1.1
				C30.1,44.3,31.2,46.1,32.4,45.6L32.4,45.6z"/>
		</g>
	</g>
</g>
</svg>
