<?xml version="1.0" encoding="utf-8"?>
<!-- Generator: Adobe Illustrator 21.1.0, SVG Export Plug-In . SVG Version: 6.00 Build 0)  -->
<svg version="1.1" id="Layer_1" xmlns="http://www.w3.org/2000/svg" xmlns:xlink="http://www.w3.org/1999/xlink" x="0px" y="0px"
	 viewBox="0 0 150 150" style="enable-background:new 0 0 150 150;" xml:space="preserve">
<style type="text/css">
	.st0{fill:#424242;}
</style>
<g>
	<g>
		<g>
			<path class="st0" d="M69.8,100.7c-3.3-0.1-6.5-0.6-9.6-1.7c-1.7-0.6-4.5-2.9-6.4-3c-1.4,0-2.6,1.1-3.8,1.7
				c-3.4,1.6-7.3,2.1-11,1.3C26.5,96.5,21.7,82,28.6,71.8c1.1-1.6-1.5-3.1-2.6-1.5c-6.7,10.1-3.9,24,7,29.8
				c5.5,2.9,12.3,3.2,17.9,0.5c0.5-0.2,2-1.5,2.6-1.5c0.9,0,3.3,1.9,4.2,2.3c3.8,1.6,7.8,2.3,12,2.4
				C71.7,103.8,71.7,100.8,69.8,100.7L69.8,100.7z"/>
		</g>
	</g>
	<g>
		<g>
			<path class="st0" d="M34.3,66.8c2.4-1.2,5-2,7.7-2c0.7,0,1.2-0.5,1.4-1.1c4.2-11.2,14.4-18.3,26.3-18.6c1.9,0,1.9-3,0-3
				c-13.3,0.3-24.5,8.3-29.2,20.8c0.5-0.4,1-0.7,1.4-1.1c-3.3,0-6.3,1-9.2,2.5C31.1,65,32.6,67.6,34.3,66.8L34.3,66.8z"/>
		</g>
	</g>
	<g>
		<g>
			<g>
				<path class="st0" d="M69.8,57.6C79.3,58,87.2,65.2,87.2,75c0,9.8-7.9,17-17.4,17.4c-1.9,0.1-1.9,3.1,0,3
					c11.1-0.4,20.5-9,20.4-20.4c0-11.4-9.3-20-20.4-20.4C67.9,54.5,67.9,57.5,69.8,57.6L69.8,57.6z"/>
			</g>
		</g>
		<g>
			<g>
				<path class="st0" d="M68.3,18.5c0,28.4,0.1,56.7,0.1,85.1c0,9.3,0,18.5,0,27.8c0,1.9,3,1.9,3,0c0-28.4,0-56.7,0-85.1
					c0-9.3,0-18.5,0-27.8C71.3,16.6,68.3,16.6,68.3,18.5L68.3,18.5z"/>
			</g>
		</g>
		<g>
			<g>
				<path class="st0" d="M88.7,76.5c12.5,0,25,0,37.6,0c1.9,0,1.9-3,0-3c-12.5,0-25,0-37.6,0C86.8,73.5,86.8,76.5,88.7,76.5
					L88.7,76.5z"/>
			</g>
		</g>
		<g>
			<g>
				<path class="st0" d="M84.3,62.7c4.9-5,9.9-10,14.8-15c1.4-1.4-0.8-3.5-2.1-2.1c-4.9,5-9.9,10-14.8,15
					C80.8,61.9,82.9,64.1,84.3,62.7L84.3,62.7z"/>
			</g>
		</g>
		<g>
			<g>
				<path class="st0" d="M82.2,89.4c4.9,5,9.8,9.9,14.8,14.9c1.4,1.4,3.5-0.7,2.1-2.1c-4.9-5-9.8-9.9-14.8-14.9
					C83,85.9,80.8,88,82.2,89.4L82.2,89.4z"/>
			</g>
		</g>
	</g>
</g>
</svg>
