<?xml version="1.0" encoding="utf-8"?>
<!-- Generator: Adobe Illustrator 21.1.0, SVG Export Plug-In . SVG Version: 6.00 Build 0)  -->
<svg version="1.1" id="Layer_1" xmlns="http://www.w3.org/2000/svg" xmlns:xlink="http://www.w3.org/1999/xlink" x="0px" y="0px"
	 viewBox="0 0 100 100" style="enable-background:new 0 0 100 100;" xml:space="preserve">
<style type="text/css">
	.st0{fill:#424242;}
</style>
<g>
	<g>
		<path class="st0" d="M86.1,50c-0.3,15.1-9.6,28.9-24,34C48,89,31.9,84.6,22.3,73.1c-9.7-11.5-11.1-28.4-3.5-41.3
			C26.5,18.7,42.1,11.6,57,14.6C73.9,18,85.8,32.9,86.1,50c0,1.9,3,1.9,3,0c-0.3-16.3-10.2-30.9-25.6-36.7
			c-15.6-5.8-33.8-0.6-44.1,12.4C9.5,38.2,8.2,56,16.3,69.7c8.3,14.1,24.8,21.6,40.9,18.7C75.7,85,88.7,68.6,89.1,50
			C89.1,48.1,86.1,48.1,86.1,50z"/>
	</g>
</g>
<g>
	<g>
		<g>
			<path class="st0" d="M50.4,62.6c-3.5-0.2-5.7-2.6-8.8-1.4c-7,2.7-13.3-4.1-9.2-10.9c0.7-1.2-1.1-2.2-1.8-1.1
				C27.6,54,28.8,60.3,34,63c2.6,1.3,5,1,7.7,0.4c2.8-0.7,5.7,1.1,8.7,1.2C51.8,64.7,51.8,62.6,50.4,62.6L50.4,62.6z"/>
		</g>
	</g>
	<g>
		<g>
			<path class="st0" d="M34.8,48.2c1-0.5,2.1-0.9,3.2-0.9c0.5,0,0.8-0.3,1-0.8c1.9-4.8,6.2-7.8,11.3-8c1.3,0,1.4-2.1,0-2.1
				c-6.2,0.2-11.1,3.8-13.3,9.5c0.3-0.3,0.7-0.5,1-0.8c-1.5,0-2.9,0.5-4.3,1.1C32.6,46.9,33.6,48.7,34.8,48.2L34.8,48.2z"/>
		</g>
	</g>
	<g>
		<g>
			<g>
				<path class="st0" d="M50.5,44.1c9.5,0.5,9.5,14.2,0,14.7c-1.3,0.1-1.4,2.2,0,2.1c5.2-0.3,9.4-4.1,9.5-9.5c0-5.4-4.3-9.2-9.5-9.5
					C49.1,41.9,49.1,44,50.5,44.1L50.5,44.1z"/>
			</g>
		</g>
		<g>
			<g>
				<path class="st0" d="M49.4,26.4c0,16.8,0,33.5,0,50.3c0,1.4,2.1,1.4,2.1,0c0-16.8,0-33.5,0-50.3C51.5,25,49.4,25,49.4,26.4
					L49.4,26.4z"/>
			</g>
		</g>
		<g>
			<g>
				<path class="st0" d="M58.9,52.5c5.6,0,11.1,0,16.7,0c1.4,0,1.4-2.1,0-2.1c-5.6,0-11.1,0-16.7,0C57.5,50.4,57.5,52.5,58.9,52.5
					L58.9,52.5z"/>
			</g>
		</g>
		<g>
			<g>
				<path class="st0" d="M57.1,46.3c2.2-2.2,4.4-4.4,6.6-6.7c1-1-0.5-2.4-1.5-1.5c-2.2,2.2-4.4,4.4-6.6,6.7
					C54.7,45.7,56.2,47.2,57.1,46.3L57.1,46.3z"/>
			</g>
		</g>
		<g>
			<g>
				<path class="st0" d="M55.7,58.1c2.2,2.2,4.4,4.4,6.6,6.6c1,1,2.4-0.5,1.5-1.5c-2.2-2.2-4.4-4.4-6.6-6.6
					C56.2,55.7,54.7,57.2,55.7,58.1L55.7,58.1z"/>
			</g>
		</g>
	</g>
</g>
</svg>
