<?xml version="1.0" encoding="utf-8"?>
<!-- Generator: Adobe Illustrator 21.1.0, SVG Export Plug-In . SVG Version: 6.00 Build 0)  -->
<svg version="1.1" id="Layer_1" xmlns="http://www.w3.org/2000/svg" xmlns:xlink="http://www.w3.org/1999/xlink" x="0px" y="0px"
	 viewBox="0 0 150 150" style="enable-background:new 0 0 150 150;" xml:space="preserve">
<style type="text/css">
	.st0{fill:#424242;}
</style>
<g>
	<g>
		<g>
			<path class="st0" d="M51.7,80.2c-2.1,5.6-3,10.2-0.9,15.9c1.7,4.6,4.7,8.8,8.6,11.8c9.3,7,23.5,6.7,32.4-0.8
				c6.4-5.4,10.4-14.5,7.9-22.8c-2.7-9-7.5-17.6-11.9-25.8c-3.7-7-7.6-13.9-11.6-20.7c-0.6-1-2-1-2.6,0C67,49.2,60.6,60.7,55,72.6
				c-0.8,1.7,1.8,3.3,2.6,1.5c5.6-11.9,12-23.5,18.6-34.8c-0.9,0-1.7,0-2.6,0c3.5,5.9,6.8,11.8,10.1,17.9c4.9,9,10.4,18.3,13.2,28.2
				c3.6,12.5-8.5,23.8-20.3,24.5c-8.1,0.5-15.9-2.9-20.4-9.7C51.9,93.8,52,88,54.6,81C55.3,79.2,52.4,78.4,51.7,80.2L51.7,80.2z"/>
		</g>
	</g>
	<g>
		<g>
			<path class="st0" d="M90.9,92.7c-0.7,2.8-2,5.6-3.9,7.8c-1.6,1.8-3.4,2.7-5.8,3c-0.5,0-2.9,0-2.9,0c0,0,0.5,0.8,0.3,0.8
				c0,0,0.5-0.7,0.5-0.7c0.7-0.8,1.7-1.5,2.6-2.2c2.2-1.7,4.6-3.1,7.1-4.5c1.1-0.7,2.3-1.3,3.4-1.9c0.3-0.2,0.7-0.3,1-0.6
				c0.2-0.1,0.9-0.4,0.2-0.1c-0.5-0.1-1-0.3-1.5-0.4c0,0,0,0,0,0c0-0.7,0-1.4,0-2.1c0.6-0.5-0.1,0-0.3,0.1c-1.7,0.9-0.2,3.5,1.5,2.6
				c0.3-0.2,0.6-0.4,0.9-0.6c0.6-0.5,0.6-1.6,0-2.1c0,0,0,0,0,0c-0.4-0.3-0.9-0.6-1.5-0.4c-1.9,0.6-3.8,2-5.5,3
				c-3,1.7-5.9,3.6-8.6,5.8c-1.5,1.2-4.1,3.6-2.2,5.6c2.3,2.3,8.3,0.5,10.5-1c3.6-2.5,6-6.9,7-11.1C94.2,91.6,91.3,90.8,90.9,92.7z"
				/>
		</g>
	</g>
</g>
</svg>
