<?xml version="1.0" encoding="utf-8"?>
<!-- Generator: Adobe Illustrator 21.1.0, SVG Export Plug-In . SVG Version: 6.00 Build 0)  -->
<svg version="1.1" id="Layer_1" xmlns="http://www.w3.org/2000/svg" xmlns:xlink="http://www.w3.org/1999/xlink" x="0px" y="0px"
	 viewBox="0 0 100 100" style="enable-background:new 0 0 100 100;" xml:space="preserve">
<style type="text/css">
	.st0{fill:#424242;}
	.blue{fill:#1E407C;}
</style>
<g>
	<g>
		<g>
			<path class="st0" d="M36.7,52.9C34,60,37,67.6,44.4,70.5c7.7,3,16.9-0.7,19.6-8.7c2-6-1.9-12.1-4.5-17.4
				C56.7,39.2,53.9,34,50.9,29c-0.4-0.7-1.4-0.7-1.8,0c-3.7,6.4-7.3,12.9-10.5,19.6c-0.6,1.2,1.2,2.3,1.8,1.1
				c3.2-6.7,6.7-13.2,10.5-19.6c-0.6,0-1.2,0-1.8,0c4.5,7.7,9.3,15.6,12.5,24c2.3,6.2-0.9,13-7.5,14.9c-10,2.8-18.8-5.9-15.3-15.5
				C39.2,52.2,37.1,51.6,36.7,52.9L36.7,52.9z"/>
		</g>
	</g>
	<g>
		<g>
			<path class="st0" d="M58.7,59.9c-0.4,1.5-1.1,3.1-2.1,4.3c-0.8,0.9-1.8,1.5-3.1,1.6c-0.4,0-0.7,0.1-1.1,0.1c-0.3,0-0.4,0-0.4,0
				c0,0,0.5,0.8,0.2,0.8c0,0,0.2-0.3,0.3-0.4c0.4-0.5,0.9-0.8,1.4-1.2c1.3-0.9,2.6-1.8,4-2.6c0.6-0.4,1.3-0.7,1.9-1.1
				c0.2-0.1,0.4-0.2,0.6-0.3c0.1-0.1,0.5-0.2,0.1-0.1c-0.3-0.1-0.7-0.2-1-0.3c0,0,0,0,0,0c0-0.5,0-1,0-1.5c0.4-0.3,0,0-0.1,0
				c-1.2,0.7-0.1,2.5,1.1,1.8c0.2-0.1,0.4-0.2,0.6-0.4c0.4-0.4,0.4-1.1,0-1.5c0,0,0,0,0,0c-0.3-0.2-0.7-0.4-1-0.3
				c-1.1,0.4-2.2,1.1-3.1,1.7c-1.7,1-3.4,2-4.9,3.3c-0.9,0.8-2.4,2.2-1.2,3.4c1.4,1.4,4.8,0.4,6.1-0.5c2.1-1.4,3.4-4,4-6.4
				C61.1,59.1,59.1,58.6,58.7,59.9z"/>
		</g>
	</g>
</g>
<g>
	<g>
		<path class="st0" d="M86.1,50c-0.3,15.1-9.6,28.9-24,34C48,89,31.9,84.6,22.3,73.1c-9.7-11.5-11.1-28.4-3.5-41.3
			C26.5,18.7,42.1,11.6,57,14.6C73.9,18,85.8,32.9,86.1,50c0,1.9,3,1.9,3,0c-0.3-16.3-10.2-30.9-25.6-36.7
			c-15.6-5.8-33.8-0.6-44.1,12.4C9.5,38.2,8.2,56,16.3,69.7c8.3,14.1,24.8,21.6,40.9,18.7C75.7,85,88.7,68.6,89.1,50
			C89.1,48.1,86.1,48.1,86.1,50z"/>
	</g>
</g>
</svg>
