<?xml version="1.0" encoding="utf-8"?>
<!-- Generator: Adobe Illustrator 21.1.0, SVG Export Plug-In . SVG Version: 6.00 Build 0)  -->
<svg version="1.1" id="Layer_1" xmlns="http://www.w3.org/2000/svg" xmlns:xlink="http://www.w3.org/1999/xlink" x="0px" y="0px"
	 viewBox="0 0 150 150" style="enable-background:new 0 0 150 150;" xml:space="preserve">
<style type="text/css">
	.st0{fill:#424242;}
</style>
<g>
	<g>
		<g>
			<path class="st0" d="M73.6,29.4c0,14.8,0,29.5,0,44.3c0,0.8,0.7,1.5,1.5,1.5c14.7,0,29.3,0,44,0c1.9,0,1.9-3,0-3
				c-14.7,0-29.3,0-44,0c0.5,0.5,1,1,1.5,1.5c0-14.8,0-29.5,0-44.3C76.6,27.5,73.6,27.5,73.6,29.4L73.6,29.4z"/>
		</g>
	</g>
	<g>
		<g>
			<path class="st0" d="M31.1,75.2c14.7,0,29.3,0,44,0c-0.5-0.5-1-1-1.5-1.5c0,14.7,0,29.3,0,44c0,1.9,3,1.9,3,0c0-14.7,0-29.3,0-44
				c0-0.8-0.7-1.5-1.5-1.5c-14.7,0-29.3,0-44,0C29.1,72.2,29.1,75.2,31.1,75.2L31.1,75.2z"/>
		</g>
	</g>
	<g>
		<g>
			<path class="st0" d="M101.6,45.2c-18.6,18.1-36.8,36.5-55,55c-1.4,1.4,0.8,3.5,2.1,2.1c18.2-18.5,36.4-36.9,55-55
				C105.1,46,103,43.9,101.6,45.2L101.6,45.2z"/>
		</g>
	</g>
	<g>
		<g>
			<path class="st0" d="M103.7,100.2c-18.3-18.3-36.6-36.8-55-55c-1.4-1.4-3.5,0.8-2.1,2.1c18.4,18.2,36.7,36.7,55,55
				C103,103.7,105.1,101.6,103.7,100.2L103.7,100.2z"/>
		</g>
	</g>
	<g>
		<g>
			<path class="st0" d="M79.7,34c-1.9,1.9-3.8,3.8-5.7,5.7c0.7,0,1.4,0,2.1,0c-1.8-1.9-3.7-3.8-5.5-5.7c-1.3-1.4-3.5,0.7-2.1,2.1
				c1.8,1.9,3.7,3.8,5.5,5.7c0.6,0.6,1.6,0.6,2.1,0c1.9-1.9,3.8-3.8,5.7-5.7C83.2,34.8,81,32.6,79.7,34L79.7,34z"/>
		</g>
	</g>
	<g>
		<g>
			<path class="st0" d="M35.5,69.3c1.8,1.8,3.7,3.7,5.5,5.5c0-0.7,0-1.4,0-2.1c-1.8,1.8-3.7,3.7-5.5,5.5c-1.4,1.4,0.8,3.5,2.1,2.1
				c1.8-1.8,3.7-3.7,5.5-5.5c0.6-0.6,0.6-1.5,0-2.1c-1.8-1.8-3.7-3.7-5.5-5.5C36.3,65.8,34.1,67.9,35.5,69.3L35.5,69.3z"/>
		</g>
	</g>
	<g>
		<g>
			<path class="st0" d="M112.5,67.2c-1.8,1.8-3.7,3.7-5.5,5.5c-0.6,0.6-0.6,1.5,0,2.1c1.8,1.8,3.7,3.7,5.5,5.5
				c1.4,1.4,3.5-0.8,2.1-2.1c-1.8-1.8-3.7-3.7-5.5-5.5c0,0.7,0,1.4,0,2.1c1.8-1.8,3.7-3.7,5.5-5.5C116,67.9,113.9,65.8,112.5,67.2
				L112.5,67.2z"/>
		</g>
	</g>
	<g>
		<g>
			<path class="st0" d="M81.8,111.3c-1.9-1.8-3.8-3.6-5.7-5.3c-0.6-0.6-1.5-0.6-2.1,0c-1.8,1.8-3.7,3.6-5.5,5.3
				c-1.4,1.3,0.7,3.5,2.1,2.1c1.8-1.8,3.7-3.6,5.5-5.3c-0.7,0-1.4,0-2.1,0c1.9,1.8,3.8,3.6,5.7,5.3
				C81.1,114.8,83.2,112.6,81.8,111.3L81.8,111.3z"/>
		</g>
	</g>
	<g>
		<g>
			<path class="st0" d="M57.3,51.6c0,1.9,0,3.8,0,5.8c0.5-0.5,1-1,1.5-1.5c-1.9,0-3.8,0-5.7,0c-1.9,0-1.9,3,0,3c1.9,0,3.8,0,5.7,0
				c0.8,0,1.5-0.7,1.5-1.5c0-1.9,0-3.8,0-5.8C60.3,49.6,57.3,49.6,57.3,51.6L57.3,51.6z"/>
		</g>
	</g>
	<g>
		<g>
			<path class="st0" d="M90,51.6c0,1.9,0,3.7,0,5.6c0,0.8,0.7,1.5,1.5,1.5c1.9,0.1,3.7,0.1,5.6,0.2c1.9,0.1,1.9-2.9,0-3
				c-1.9-0.1-3.7-0.1-5.6-0.2c0.5,0.5,1,1,1.5,1.5c0-1.9,0-3.7,0-5.6C93,49.6,90,49.6,90,51.6L90,51.6z"/>
		</g>
	</g>
	<g>
		<g>
			<path class="st0" d="M60.1,95.7c0-1.8,0-3.7,0-5.5c0-0.8-0.7-1.5-1.5-1.5c-1.8,0-3.7,0-5.5,0c-1.9,0-1.9,3,0,3c1.8,0,3.7,0,5.5,0
				c-0.5-0.5-1-1-1.5-1.5c0,1.8,0,3.7,0,5.5C57.1,97.6,60.1,97.6,60.1,95.7L60.1,95.7z"/>
		</g>
	</g>
	<g>
		<g>
			<path class="st0" d="M93.4,95.7c0-1.7,0-3.5,0-5.2c-0.5,0.5-1,1-1.5,1.5c1.7-0.1,3.5-0.2,5.2-0.3c1.9-0.1,1.9-3.1,0-3
				c-1.7,0.1-3.5,0.2-5.2,0.3c-0.8,0-1.5,0.6-1.5,1.5c0,1.7,0,3.5,0,5.2C90.4,97.6,93.4,97.6,93.4,95.7L93.4,95.7z"/>
		</g>
	</g>
	<g>
		<g>
			<path class="st0" d="M52,69.3c1.8,1.8,3.7,3.7,5.5,5.5c0-0.7,0-1.4,0-2.1c-1.8,1.8-3.7,3.7-5.5,5.5c-1.4,1.4,0.8,3.5,2.1,2.1
				c1.8-1.8,3.7-3.7,5.5-5.5c0.6-0.6,0.6-1.5,0-2.1c-1.8-1.8-3.7-3.7-5.5-5.5C52.8,65.8,50.6,67.9,52,69.3L52,69.3z"/>
		</g>
	</g>
	<g>
		<g>
			<path class="st0" d="M81.8,94.7c-1.9-1.8-3.8-3.7-5.7-5.5c-0.6-0.6-1.5-0.6-2.1,0c-1.8,1.8-3.7,3.7-5.5,5.5
				c-1.4,1.4,0.8,3.5,2.1,2.1c1.8-1.8,3.7-3.7,5.5-5.5c-0.7,0-1.4,0-2.1,0c1.9,1.8,3.8,3.7,5.7,5.5C81.1,98.1,83.2,96,81.8,94.7
				L81.8,94.7z"/>
		</g>
	</g>
	<g>
		<g>
			<path class="st0" d="M96,67.2c-1.7,1.8-3.5,3.6-5.2,5.4c-0.6,0.6-0.6,1.5,0,2.1c1.7,1.9,3.5,3.7,5.2,5.6c1.3,1.4,3.4-0.7,2.1-2.1
				c-1.7-1.9-3.5-3.7-5.2-5.6c0,0.7,0,1.4,0,2.1c1.7-1.8,3.5-3.6,5.2-5.4C99.5,67.9,97.4,65.8,96,67.2L96,67.2z"/>
		</g>
	</g>
	<g>
		<g>
			<path class="st0" d="M79.7,50.5c-1.9,1.9-3.8,3.8-5.7,5.7c0.7,0,1.4,0,2.1,0c-1.8-1.9-3.7-3.8-5.5-5.7c-1.3-1.4-3.5,0.7-2.1,2.1
				c1.8,1.9,3.7,3.8,5.5,5.7c0.6,0.6,1.6,0.6,2.1,0c1.9-1.9,3.8-3.8,5.7-5.7C83.2,51.3,81,49.1,79.7,50.5L79.7,50.5z"/>
		</g>
	</g>
</g>
</svg>
