<?xml version="1.0" encoding="utf-8"?>
<!-- Generator: Adobe Illustrator 21.1.0, SVG Export Plug-In . SVG Version: 6.00 Build 0)  -->
<svg version="1.1" id="Layer_1" xmlns="http://www.w3.org/2000/svg" xmlns:xlink="http://www.w3.org/1999/xlink" x="0px" y="0px"
	 viewBox="0 0 100 100" style="enable-background:new 0 0 100 100;" xml:space="preserve">
<style type="text/css">
	.st0{fill:#424242;}
</style>
<g>
	<g>
		<path class="st0" d="M86.1,50c-0.3,15.1-9.6,28.9-24,34C48,89,31.9,84.6,22.3,73.1c-9.7-11.5-11.1-28.4-3.5-41.3
			C26.5,18.7,42.1,11.6,57,14.6C73.9,18,85.8,32.9,86.1,50c0,1.9,3,1.9,3,0c-0.3-16.3-10.2-30.9-25.6-36.7
			c-15.6-5.8-33.8-0.6-44.1,12.4C9.5,38.2,8.2,56,16.3,69.7c8.3,14.1,24.8,21.6,40.9,18.7C75.7,85,88.7,68.6,89.1,50
			C89.1,48.1,86.1,48.1,86.1,50z"/>
	</g>
</g>
<g>
	<g>
		<g>
			<path class="st0" d="M49,28.5c0,7.2,0,14.4,0,21.6c0,0.6,0.5,1,1,1c7.2,0,14.3,0,21.5,0c1.4,0,1.4-2.1,0-2.1
				c-7.2,0-14.3,0-21.5,0c0.4,0.3,0.7,0.7,1,1c0-7.2,0-14.4,0-21.6C51.1,27.1,49,27.1,49,28.5L49,28.5z"/>
		</g>
	</g>
	<g>
		<g>
			<path class="st0" d="M28.5,51.1c7.2,0,14.3,0,21.5,0c-0.3-0.3-0.7-0.7-1-1c0,7.2,0,14.3,0,21.5c0,1.4,2.1,1.4,2.1,0
				c0-7.2,0-14.3,0-21.5c0-0.6-0.5-1-1-1c-7.2,0-14.3,0-21.5,0C27.2,49,27.2,51.1,28.5,51.1L28.5,51.1z"/>
		</g>
	</g>
	<g>
		<g>
			<path class="st0" d="M62.7,36c-9.1,8.8-17.9,17.8-26.8,26.8c-0.9,1,0.5,2.4,1.5,1.5c8.9-9,17.8-18,26.8-26.8
				C65.2,36.5,63.7,35,62.7,36L62.7,36z"/>
		</g>
	</g>
	<g>
		<g>
			<path class="st0" d="M64.2,62.8C55.2,53.8,46.4,44.9,37.4,36c-1-1-2.4,0.5-1.5,1.5c9,8.9,17.9,17.9,26.8,26.8
				C63.7,65.2,65.2,63.7,64.2,62.8L64.2,62.8z"/>
		</g>
	</g>
	<g>
		<g>
			<path class="st0" d="M52,30.5c-0.9,0.9-1.8,1.8-2.8,2.8c0.5,0,1,0,1.5,0c-0.9-0.9-1.8-1.8-2.7-2.8c-0.9-1-2.4,0.5-1.5,1.5
				c0.9,0.9,1.8,1.8,2.7,2.8c0.4,0.4,1.1,0.4,1.5,0c0.9-0.9,1.8-1.8,2.8-2.8C54.5,31,53,29.5,52,30.5L52,30.5z"/>
		</g>
	</g>
	<g>
		<g>
			<path class="st0" d="M30.5,48.1c0.9,0.9,1.8,1.8,2.7,2.7c0-0.5,0-1,0-1.5c-0.9,0.9-1.8,1.8-2.7,2.7c-1,1,0.5,2.4,1.5,1.5
				c0.9-0.9,1.8-1.8,2.7-2.7c0.4-0.4,0.4-1.1,0-1.5c-0.9-0.9-1.8-1.8-2.7-2.7C31,45.7,29.5,47.2,30.5,48.1L30.5,48.1z"/>
		</g>
	</g>
	<g>
		<g>
			<path class="st0" d="M68,46.6c-0.9,0.9-1.8,1.8-2.7,2.7c-0.4,0.4-0.4,1.1,0,1.5c0.9,0.9,1.8,1.8,2.7,2.7c1,1,2.4-0.5,1.5-1.5
				c-0.9-0.9-1.8-1.8-2.7-2.7c0,0.5,0,1,0,1.5c0.9-0.9,1.8-1.8,2.7-2.7C70.5,47.2,69,45.7,68,46.6L68,46.6z"/>
		</g>
	</g>
	<g>
		<g>
			<path class="st0" d="M53.5,68.2c-0.9-0.9-1.8-1.7-2.8-2.6c-0.4-0.4-1.1-0.4-1.5,0c-0.9,0.9-1.8,1.7-2.7,2.6
				c-1,0.9,0.5,2.4,1.5,1.5c0.9-0.9,1.8-1.7,2.7-2.6c-0.5,0-1,0-1.5,0c0.9,0.9,1.8,1.7,2.8,2.6C53,70.6,54.5,69.1,53.5,68.2
				L53.5,68.2z"/>
		</g>
	</g>
	<g>
		<g>
			<path class="st0" d="M41,39.3c0,0.9,0,1.9,0,2.8c0.3-0.3,0.7-0.7,1-1c-0.9,0-1.9,0-2.8,0c-1.4,0-1.4,2.1,0,2.1c0.9,0,1.9,0,2.8,0
				c0.6,0,1-0.5,1-1c0-0.9,0-1.9,0-2.8C43.1,37.9,41,37.9,41,39.3L41,39.3z"/>
		</g>
	</g>
	<g>
		<g>
			<path class="st0" d="M57,39.3c0,0.9,0,1.8,0,2.7c0,0.6,0.5,1,1.1,1c0.9,0,1.8,0,2.7,0.1c1.4,0,1.4-2.1,0-2.1
				c-0.9,0-1.8,0-2.7-0.1c0.3,0.3,0.7,0.7,1,1c0-0.9,0-1.8,0-2.7C59.1,37.9,57,37.9,57,39.3L57,39.3z"/>
		</g>
	</g>
	<g>
		<g>
			<path class="st0" d="M43,60.8c0-0.9,0-1.8,0-2.7c0-0.6-0.5-1.1-1-1.1c-0.9,0-1.8,0-2.7,0c-1.4,0-1.4,2.1,0,2.1c0.9,0,1.8,0,2.7,0
				c-0.3-0.4-0.7-0.7-1-1c0,0.9,0,1.8,0,2.7C40.9,62.2,43,62.2,43,60.8L43,60.8z"/>
		</g>
	</g>
	<g>
		<g>
			<path class="st0" d="M59.2,60.8c0-0.8,0-1.7,0-2.5c-0.3,0.3-0.7,0.7-1,1c0.8-0.1,1.7-0.1,2.5-0.2c1.3-0.1,1.4-2.2,0-2.1
				c-0.8,0.1-1.7,0.1-2.5,0.2c-0.6,0-1,0.5-1,1c0,0.8,0,1.7,0,2.5C57.1,62.2,59.2,62.2,59.2,60.8L59.2,60.8z"/>
		</g>
	</g>
	<g>
		<g>
			<path class="st0" d="M38.5,48.1c0.9,0.9,1.8,1.8,2.7,2.7c0-0.5,0-1,0-1.5c-0.9,0.9-1.8,1.8-2.7,2.7c-1,1,0.5,2.4,1.5,1.5
				c0.9-0.9,1.8-1.8,2.7-2.7c0.4-0.4,0.4-1.1,0-1.5c-0.9-0.9-1.8-1.8-2.7-2.7C39.1,45.7,37.6,47.2,38.5,48.1L38.5,48.1z"/>
		</g>
	</g>
	<g>
		<g>
			<path class="st0" d="M53.5,60.1c-0.9-0.9-1.8-1.8-2.8-2.7c-0.4-0.4-1.1-0.4-1.5,0c-0.9,0.9-1.8,1.8-2.7,2.7c-1,1,0.5,2.4,1.5,1.5
				c0.9-0.9,1.8-1.8,2.7-2.7c-0.5,0-1,0-1.5,0c0.9,0.9,1.8,1.8,2.8,2.7C53,62.5,54.5,61,53.5,60.1L53.5,60.1z"/>
		</g>
	</g>
	<g>
		<g>
			<path class="st0" d="M60,46.6c-0.8,0.9-1.7,1.8-2.5,2.6c-0.4,0.4-0.4,1.1,0,1.5c0.8,0.9,1.7,1.8,2.5,2.7c0.9,1,2.4-0.5,1.5-1.5
				c-0.8-0.9-1.7-1.8-2.5-2.7c0,0.5,0,1,0,1.5c0.8-0.9,1.7-1.8,2.5-2.6C62.4,47.2,60.9,45.7,60,46.6L60,46.6z"/>
		</g>
	</g>
	<g>
		<g>
			<path class="st0" d="M52,38.5c-0.9,0.9-1.8,1.8-2.8,2.8c0.5,0,1,0,1.5,0c-0.9-0.9-1.8-1.8-2.7-2.8c-0.9-1-2.4,0.5-1.5,1.5
				c0.9,0.9,1.8,1.8,2.7,2.8c0.4,0.4,1.1,0.4,1.5,0c0.9-0.9,1.8-1.8,2.8-2.8C54.5,39.1,53,37.6,52,38.5L52,38.5z"/>
		</g>
	</g>
</g>
</svg>
