<?xml version="1.0" encoding="utf-8"?>
<!-- Generator: Adobe Illustrator 21.1.0, SVG Export Plug-In . SVG Version: 6.00 Build 0)  -->
<svg version="1.1" id="Layer_1" xmlns="http://www.w3.org/2000/svg" xmlns:xlink="http://www.w3.org/1999/xlink" x="0px" y="0px"
	 viewBox="0 0 150 150" style="enable-background:new 0 0 150 150;" xml:space="preserve">
<style type="text/css">
	.st0{fill:#424242;}
</style>
<g>
	<g>
		<path class="st0" d="M54.1,49.1c1.2-4.3,2.4-8.6,3.6-12.9c-0.5,0.4-1,0.7-1.4,1.1c11,0,21.9,0,32.9,0c-0.5-0.6-1-1.3-1.4-1.9
			c-2.1,7-4.2,14-6.3,21c-0.3,0.9,0.5,1.9,1.4,1.9c6.7-0.1,13.4-0.2,20.1-0.3c-0.4-0.8-0.9-1.5-1.3-2.3
			C87.5,75,73.4,94.2,59.3,113.5c0.9,0.3,1.9,0.5,2.8,0.8c1.3-15.2,2.6-30.4,4-45.5c0.1-0.8-0.7-1.5-1.5-1.5c-5.8,0-11.6,0-17.4,0
			c0.5,0.6,1,1.3,1.4,1.9c1.1-3.9,2.2-7.9,3.3-11.8c0.5-1.9-2.4-2.7-2.9-0.8c-1.1,3.9-2.2,7.9-3.3,11.8c-0.3,0.9,0.5,1.9,1.4,1.9
			c5.8,0,11.6,0,17.4,0c-0.5-0.5-1-1-1.5-1.5c-1.3,15.2-2.6,30.4-4,45.5c-0.1,1.6,2,1.8,2.8,0.8C76,95.7,90.1,76.5,104.2,57.3
			c0.7-0.9-0.2-2.3-1.3-2.3c-6.7,0.1-13.4,0.2-20.1,0.3c0.5,0.6,1,1.3,1.4,1.9c2.1-7,4.2-14,6.3-21c0.3-0.9-0.5-1.9-1.4-1.9
			c-11,0-21.9,0-32.9,0c-0.7,0-1.3,0.5-1.4,1.1c-1.2,4.3-2.4,8.6-3.6,12.9C50.7,50.2,53.5,51,54.1,49.1L54.1,49.1z"/>
	</g>
</g>
</svg>
