<?xml version="1.0" encoding="utf-8"?>
<!-- Generator: Adobe Illustrator 21.1.0, SVG Export Plug-In . SVG Version: 6.00 Build 0)  -->
<svg version="1.1" id="Layer_1" xmlns="http://www.w3.org/2000/svg" xmlns:xlink="http://www.w3.org/1999/xlink" x="0px" y="0px"
	 viewBox="0 0 150 150" style="enable-background:new 0 0 150 150;" xml:space="preserve">
<style type="text/css">
	.st0{fill:#424242;}
</style>
<g>
	<g>
		<g>
			<path class="st0" d="M61.8,65.8c4.7-6,12.7-8.7,19.9-5.3c7.2,3.4,11,11.9,8.5,19.5c-2.5,7.8-10.7,12.4-18.7,10.7
				c-8.8-1.9-13.6-10.4-12.2-19c0.3-1.9-2.6-2.7-2.9-0.8c-1.5,9.4,2.8,18.7,12.1,22.1c9.1,3.3,19.6-1,23.7-9.9c4-8.6,1-19-7-24.1
				c-8.5-5.4-19.4-3.1-25.5,4.7C58.5,65.2,60.7,67.3,61.8,65.8L61.8,65.8z"/>
		</g>
	</g>
	<g>
		<g>
			<path class="st0" d="M76.5,57.5c0-11.6,0-23.2-0.1-34.8c0-1.9-3-1.9-3,0c0,11.6,0,23.2,0.1,34.8C73.5,59.4,76.5,59.4,76.5,57.5
				L76.5,57.5z"/>
		</g>
	</g>
	<g>
		<g>
			<path class="st0" d="M92.5,76.5c11.6,0,23.2,0,34.8,0c1.9,0,1.9-3,0-3c-11.6,0-23.2,0-34.8,0C90.6,73.5,90.6,76.5,92.5,76.5
				L92.5,76.5z"/>
		</g>
	</g>
	<g>
		<g>
			<path class="st0" d="M73.5,92.5c0,11.6,0,23.2,0,34.8c0,1.9,3,1.9,3,0c0-11.6,0-23.2,0-34.8C76.5,90.6,73.5,90.6,73.5,92.5
				L73.5,92.5z"/>
		</g>
	</g>
	<g>
		<g>
			<path class="st0" d="M57.5,73.5c-11.6,0-23.2,0-34.8,0c-1.9,0-1.9,3,0,3c11.6,0,23.2,0,34.8,0C59.4,76.5,59.4,73.5,57.5,73.5
				L57.5,73.5z"/>
		</g>
	</g>
	<g>
		<g>
			<path class="st0" d="M88.5,63.7c4.6-4.6,9.2-9.3,13.8-13.9c1.4-1.4-0.8-3.5-2.1-2.1c-4.6,4.6-9.2,9.3-13.8,13.9
				C85,62.9,87.1,65,88.5,63.7L88.5,63.7z"/>
		</g>
	</g>
	<g>
		<g>
			<path class="st0" d="M86.4,88.4c4.6,4.6,9.1,9.2,13.7,13.8c1.4,1.4,3.5-0.7,2.1-2.1c-4.6-4.6-9.1-9.2-13.7-13.8
				C87.2,84.9,85,87,86.4,88.4L86.4,88.4z"/>
		</g>
	</g>
	<g>
		<g>
			<path class="st0" d="M61.6,86.4c-4.6,4.6-9.3,9.1-13.9,13.7c-1.4,1.4,0.7,3.5,2.1,2.1c4.6-4.6,9.3-9.1,13.9-13.7
				C65.1,87.2,63,85.1,61.6,86.4L61.6,86.4z"/>
		</g>
	</g>
	<g>
		<g>
			<path class="st0" d="M63.7,61.5c-4.6-4.6-9.3-9.3-13.9-13.9c-1.4-1.4-3.5,0.8-2.1,2.1c4.6,4.6,9.3,9.3,13.9,13.9
				C62.9,65,65,62.9,63.7,61.5L63.7,61.5z"/>
		</g>
	</g>
</g>
</svg>
