<?xml version="1.0" encoding="utf-8"?>
<!-- Generator: Adobe Illustrator 21.1.0, SVG Export Plug-In . SVG Version: 6.00 Build 0)  -->
<svg version="1.1" id="Layer_1" xmlns="http://www.w3.org/2000/svg" xmlns:xlink="http://www.w3.org/1999/xlink" x="0px" y="0px"
	 viewBox="0 0 100 100" style="enable-background:new 0 0 100 100;" xml:space="preserve">
<style type="text/css">
	.st0{fill:#424242;}
</style>
<g>
	<g>
		<g>
			<path class="st0" d="M43.5,45.5c5.3-6.7,16.7-2,14.1,6.8c-2.8,9.6-16.9,5.8-15.4-3.9c0.2-1.3-1.8-1.9-2-0.6
				c-0.8,4.8,1.4,9.6,6,11.5c4.8,2,10.5-0.2,12.8-5C64.2,43.6,49.2,34.8,42,44C41.1,45,42.6,46.5,43.5,45.5L43.5,45.5z"/>
		</g>
	</g>
	<g>
		<g>
			<path class="st0" d="M51.1,41c0-6,0-11.9,0-17.9c0-1.4-2.1-1.4-2.1,0c0,6,0,11.9,0,17.9C49,42.4,51.1,42.4,51.1,41L51.1,41z"/>
		</g>
	</g>
	<g>
		<g>
			<path class="st0" d="M59,51.1c6,0,11.9,0,17.9,0c1.4,0,1.4-2.1,0-2.1c-6,0-11.9,0-17.9,0C57.6,49,57.6,51.1,59,51.1L59,51.1z"/>
		</g>
	</g>
	<g>
		<g>
			<path class="st0" d="M49,59c0,6,0,11.9,0,17.9c0,1.4,2.1,1.4,2.1,0c0-6,0-11.9,0-17.9C51.1,57.6,49,57.6,49,59L49,59z"/>
		</g>
	</g>
	<g>
		<g>
			<path class="st0" d="M41,49c-6,0-11.9,0-17.9,0c-1.4,0-1.4,2.1,0,2.1c6,0,11.9,0,17.9,0C42.4,51.1,42.4,49,41,49L41,49z"/>
		</g>
	</g>
	<g>
		<g>
			<path class="st0" d="M57.1,44.4c2.4-2.4,4.7-4.7,7.1-7.1c1-1-0.5-2.4-1.5-1.5c-2.4,2.4-4.7,4.7-7.1,7.1
				C54.7,43.9,56.1,45.3,57.1,44.4L57.1,44.4z"/>
		</g>
	</g>
	<g>
		<g>
			<path class="st0" d="M55.6,57.1c2.3,2.4,4.7,4.7,7,7.1c1,1,2.4-0.5,1.5-1.5c-2.3-2.4-4.7-4.7-7-7.1
				C56.2,54.6,54.7,56.1,55.6,57.1L55.6,57.1z"/>
		</g>
	</g>
	<g>
		<g>
			<path class="st0" d="M42.9,55.6c-2.4,2.3-4.8,4.7-7.1,7c-1,0.9,0.5,2.4,1.5,1.5c2.4-2.3,4.8-4.7,7.1-7
				C45.4,56.2,43.9,54.7,42.9,55.6L42.9,55.6z"/>
		</g>
	</g>
	<g>
		<g>
			<path class="st0" d="M44.4,42.9c-2.4-2.4-4.7-4.7-7.1-7.1c-1-1-2.4,0.5-1.5,1.5c2.4,2.4,4.7,4.7,7.1,7.1
				C43.9,45.3,45.3,43.9,44.4,42.9L44.4,42.9z"/>
		</g>
	</g>
</g>
<g>
	<g>
		<path class="st0" d="M86.1,50c-0.3,15.1-9.6,28.9-24,34C48,89,31.9,84.6,22.3,73.1c-9.7-11.5-11.1-28.4-3.5-41.3
			C26.5,18.7,42.1,11.6,57,14.6C73.9,18,85.8,32.9,86.1,50c0,1.9,3,1.9,3,0c-0.3-16.3-10.2-30.9-25.6-36.7
			c-15.6-5.8-33.8-0.6-44.1,12.4C9.5,38.2,8.2,56,16.3,69.7c8.3,14.1,24.8,21.6,40.9,18.7C75.7,85,88.7,68.6,89.1,50
			C89.1,48.1,86.1,48.1,86.1,50z"/>
	</g>
</g>
</svg>
