<?xml version="1.0" encoding="utf-8"?>
<!-- Generator: Adobe Illustrator 21.1.0, SVG Export Plug-In . SVG Version: 6.00 Build 0)  -->
<svg version="1.1" id="Layer_1" xmlns="http://www.w3.org/2000/svg" xmlns:xlink="http://www.w3.org/1999/xlink" x="0px" y="0px"
	 viewBox="0 0 100 100" style="enable-background:new 0 0 100 100;" xml:space="preserve">
<style type="text/css">
	.st0{fill:#424242;}
</style>
<g>
	<g>
		<g>
			<path class="st0" d="M52.3,58.4c0.9,0,1.8,0,2.7,0c1.4,0,1.4-2.1,0-2.1c-0.9,0-1.8,0-2.7,0C51,56.3,51,58.4,52.3,58.4L52.3,58.4z
				"/>
		</g>
	</g>
	<g>
		<g>
			<path class="st0" d="M48.7,55.4c2,0,3.9,0,5.9,0c1.4,0,1.4-2.1,0-2.1c-2,0-3.9,0-5.9,0C47.4,53.3,47.4,55.4,48.7,55.4L48.7,55.4z
				"/>
		</g>
	</g>
	<g>
		<g>
			<path class="st0" d="M55.8,43.3c-1.2,0-2.3,0-3.5,0c-1.4,0-1.4,2.1,0,2.1c1.2,0,2.3,0,3.5,0C57.2,45.4,57.2,43.3,55.8,43.3
				L55.8,43.3z"/>
		</g>
	</g>
	<g>
		<g>
			<path class="st0" d="M56,40.1c-2.4,0-4.8,0-7.2,0c-1.4,0-1.4,2.1,0,2.1c2.4,0,4.8,0,7.2,0C57.3,42.2,57.3,40.1,56,40.1L56,40.1z"
				/>
		</g>
	</g>
	<g>
		<g>
			<path class="st0" d="M43.9,71.9c-0.7,1.2-2,0.5-2.1-0.5c-0.1,0.3-0.2,0.7-0.3,1c0,0,0,0,0,0c0.6-0.4,0.3-1.3-0.2-1.6
				c-1.3-0.8-0.1-2.1,0.9-2c1.2,0.1,1.4-1.8,0.3-2.1c0,0,0,0,0,0c0.2,0.6,0.3,1.2,0.5,1.8c0.6-0.7,1.1-0.7,1.5,0
				c0.5,0.2,0.7,0.5,0.5,1c0.4-0.2,0.9-0.5,1.3-0.7c0,0,0,0,0,0c-1-0.4-1.7,1-1,1.8c0.9,0.9,1.8,1.8,2.7,2.8
				c0.2-0.6,0.5-1.2,0.7-1.8c-1.2,0-2.5,0-3.7,0c-1.4,0-1.4,2.1,0,2.1c1.2,0,2.5,0,3.7,0c0.9,0,1.4-1.1,0.7-1.8
				c-0.9-0.9-1.8-1.8-2.7-2.8c-0.3,0.6-0.7,1.2-1,1.8c0,0,0,0,0,0c0.5,0.2,1.2-0.2,1.3-0.7c0.9-3.3-3.1-5.5-5.5-3
				c-0.5,0.5-0.3,1.6,0.5,1.8c0,0,0,0,0,0c0.1-0.7,0.2-1.4,0.3-2.1c-3.6-0.4-4.8,4.1-1.9,5.9c-0.1-0.5-0.1-1.1-0.2-1.6c0,0,0,0,0,0
				c-0.3,0.2-0.3,0.7-0.3,1c0.5,3.1,4.4,3.6,6,1C46.4,71.8,44.6,70.8,43.9,71.9L43.9,71.9z"/>
		</g>
	</g>
	<g>
		<g>
			<path class="st0" d="M59.6,73.2c1.6,2.6,5.4,2.1,6-1c0.1-0.5-0.1-0.9-0.5-1.2c0,0,0,0,0,0c0,0.6,0,1.2,0,1.8
				c2.8-1.8,1.6-6.3-1.9-5.9c0.1,0.7,0.2,1.4,0.3,2.1c0,0,0,0,0,0c0.8-0.2,1-1.2,0.5-1.8c-2.4-2.5-6.3-0.3-5.5,3
				c0.1,0.5,0.8,0.9,1.3,0.7c0,0,0,0,0,0c-0.3-0.6-0.7-1.2-1-1.8c-0.9,0.9-1.8,1.8-2.7,2.8c-0.6,0.6-0.2,1.8,0.7,1.8
				c1.2,0,2.5,0,3.7,0c1.4,0,1.4-2.1,0-2.1c-1.2,0-2.5,0-3.7,0c0.2,0.6,0.5,1.2,0.7,1.8c0.9-0.9,1.8-1.8,2.7-2.8
				c0.7-0.7,0-2.1-1-1.8c0,0,0,0,0,0c0.4,0.2,0.9,0.5,1.3,0.7c-0.2-0.4-0.1-0.8,0.5-1c0.4-0.7,0.9-0.7,1.5,0
				c0.2-0.6,0.3-1.2,0.5-1.8c0,0,0,0,0,0c-1.1,0.2-0.9,2.2,0.3,2.1c1-0.1,2.1,1.2,0.9,2c-0.7,0.5-0.7,1.3,0,1.8c0,0,0,0,0,0
				c-0.2-0.4-0.3-0.8-0.5-1.2c-0.2,1-1.4,1.7-2.1,0.5C60.8,71,58.9,72,59.6,73.2L59.6,73.2z"/>
		</g>
	</g>
	<g>
		<g>
			<path class="st0" d="M40.6,45.3c-1.2-2-5.3-10.1-2.7-11.9c1.7-1.1,6.1-0.6,8.1-0.7c3.4-0.1,6.8-0.1,10.2,0.2
				c0.8,0.1,2.5-0.1,3.2,0.5c-0.8-0.7,0.2-0.9-0.8,0.1c-0.4,0.4-0.8,1-1.1,1.5c-1.8,2.7-3,5.7-2.6,9c0.5,4.4,4.7,7.1,5.1,11.4
				c0.6,6-4.8,12.4-8.8,16.3c0.6,0.3,1.2,0.7,1.8,1c0.9-3.7,3-6.7,2.5-10.7c-0.8-6.1-7.7-8.8-11.6-12.7c-1-1-2.4,0.5-1.5,1.5
				c3.8,3.8,11.2,7,11,12.9c-0.1,3.1-1.8,5.6-2.5,8.5c-0.2,1,1,1.8,1.8,1c4.6-4.4,10.2-11.4,9.4-18.2c-0.3-2.7-1.6-3.9-3-6.1
				c-2.5-3.9-2.7-7.8-0.4-11.7c0.9-1.5,3.8-3.7,2.3-5.5c-1.2-1.5-6.5-1.1-8-1.1c-4.3-0.1-8.6-0.2-12.8,0.3c-1.8,0.2-3.5,0.2-4.4,1.9
				c-1.9,4,1.2,10.2,3.2,13.5C39.5,47.5,41.3,46.5,40.6,45.3L40.6,45.3z"/>
		</g>
	</g>
</g>
<g>
	<g>
		<path class="st0" d="M86.1,50c-0.3,15.1-9.6,28.9-24,34C48,89,31.9,84.6,22.3,73.1c-9.7-11.5-11.1-28.4-3.5-41.3
			C26.5,18.7,42.1,11.6,57,14.6C73.9,18,85.8,32.9,86.1,50c0,1.9,3,1.9,3,0c-0.3-16.3-10.2-30.9-25.6-36.7
			c-15.6-5.8-33.8-0.6-44.1,12.4C9.5,38.2,8.2,56,16.3,69.7c8.3,14.1,24.8,21.6,40.9,18.7C75.7,85,88.7,68.6,89.1,50
			C89.1,48.1,86.1,48.1,86.1,50z"/>
	</g>
</g>
</svg>
