<?xml version="1.0" encoding="utf-8"?>
<!-- Generator: Adobe Illustrator 21.1.0, SVG Export Plug-In . SVG Version: 6.00 Build 0)  -->
<svg version="1.1" id="Layer_1" xmlns="http://www.w3.org/2000/svg" xmlns:xlink="http://www.w3.org/1999/xlink" x="0px" y="0px"
	 viewBox="0 0 150 150" style="enable-background:new 0 0 150 150;" xml:space="preserve">
<style type="text/css">
	.st0{fill:#424242;}
</style>
<g>
	<g>
		<path class="st0" d="M79.5,87.2c1.7,0,3.4,0,5.2,0c1.9,0,1.9-3,0-3c-1.7,0-3.4,0-5.2,0C77.5,84.2,77.5,87.2,79.5,87.2L79.5,87.2z"
			/>
	</g>
</g>
<g>
	<g>
		<path class="st0" d="M74.5,82.7c3.8,0,7.7,0,11.5,0c1.9,0,1.9-3,0-3c-3.8,0-7.7,0-11.5,0C72.6,79.7,72.6,82.7,74.5,82.7L74.5,82.7
			z"/>
	</g>
</g>
<g>
	<g>
		<path class="st0" d="M85.3,55.1c-2.3,0-4.6,0-6.8,0c-1.9,0-1.9,3,0,3c2.3,0,4.6,0,6.8,0C87.2,58.1,87.2,55.1,85.3,55.1L85.3,55.1z
			"/>
	</g>
</g>
<g>
	<g>
		<path class="st0" d="M85.5,50.9c-4.7,0-9.4,0-14.1,0c-1.9,0-1.9,3,0,3c4.7,0,9.4,0,14.1,0C87.5,53.9,87.5,50.9,85.5,50.9
			L85.5,50.9z"/>
	</g>
</g>
<g>
	<g>
		<path class="st0" d="M64.5,112.7c-1.7,2.7-4.8,1.2-5.2-1.1c-0.3,0.6-0.7,1.2-1,1.8c0,0,0,0,0,0c1.2-0.5,1.5-2,0.4-2.7
			c-2-1.5-2.1-2.7-0.2-3.7c0.5-1.1,1.2-1.6,2.2-1.2c1.7,0.2,2.1-2.6,0.4-2.9c0,0,0,0-0.1,0c0.2,0.8,0.4,1.7,0.7,2.5
			c1.4-1.7,2.6-1.7,3.6,0.1c1.2,0.5,1.6,1.3,1.1,2.3c0.6-0.3,1.2-0.7,1.8-1c0,0,0,0-0.1,0c-1.5-0.5-2.5,1.5-1.5,2.5
			c1.8,1.8,3.6,3.6,5.3,5.4c0.4-0.9,0.7-1.7,1.1-2.6c-2.4,0-4.9,0-7.3,0c-1.9,0-1.9,3,0,3c2.4,0,4.9,0,7.3,0c1.3,0,2-1.6,1.1-2.6
			c-1.8-1.8-3.6-3.6-5.3-5.4c-0.5,0.8-1,1.7-1.5,2.5c0,0,0,0,0.1,0c0.8,0.3,1.7-0.3,1.8-1c1.6-6-5.5-9.8-9.7-5.3
			c-0.7,0.8-0.5,2.3,0.7,2.5c0,0,0,0,0.1,0c0.1-1,0.3-2,0.4-2.9c-6.4-0.6-8.6,7.2-3.5,10.6c0.1-0.9,0.2-1.8,0.4-2.7c0,0,0,0,0,0
			c-0.8,0.3-1.2,1-1,1.8c1,5.6,7.8,6.5,10.7,1.8C68.1,112.5,65.5,111,64.5,112.7L64.5,112.7z"/>
	</g>
</g>
<g>
	<g>
		<path class="st0" d="M91.2,114.5c2.9,4.7,9.7,3.7,10.7-1.8c0.1-0.6-0.1-1.4-0.7-1.7c0,0,0,0,0,0c0,0.9,0,1.7,0,2.6
			c5.1-3.3,2.9-11.2-3.5-10.6c0.1,1,0.3,2,0.4,2.9c0,0,0,0,0.1,0c1.2-0.2,1.4-1.7,0.7-2.5c-4.2-4.5-11.3-0.7-9.7,5.3
			c0.2,0.7,1.1,1.3,1.8,1c0,0,0,0,0.1,0c-0.5-0.8-1-1.7-1.5-2.5c-1.8,1.8-3.6,3.6-5.3,5.4c-0.9,0.9-0.2,2.6,1.1,2.6
			c2.4,0,4.9,0,7.3,0c1.9,0,1.9-3,0-3c-2.4,0-4.9,0-7.3,0c0.4,0.9,0.7,1.7,1.1,2.6c1.8-1.8,3.6-3.6,5.3-5.4c1-1,0-3-1.5-2.5
			c0,0,0,0-0.1,0c0.6,0.3,1.2,0.7,1.8,1c-0.5-1-0.1-1.8,1.1-2.3c0.9-1.8,2.1-1.8,3.6-0.1c0.2-0.8,0.4-1.7,0.7-2.5c0,0,0,0-0.1,0
			c-1.6,0.3-1.3,3.1,0.4,2.9c1-0.3,1.7,0.1,2.2,1.2c1.9,1,1.8,2.3-0.2,3.7c-0.9,0.6-1.1,2,0,2.6c0,0,0,0,0,0
			c-0.2-0.6-0.5-1.1-0.7-1.7c-0.4,2.4-3.5,3.8-5.2,1.1C92.8,111.4,90.2,112.9,91.2,114.5L91.2,114.5z"/>
	</g>
</g>
<g>
	<g>
		<path class="st0" d="M55.1,60.8c-4.1-6.5-7.6-14.6-6.1-22.4c0.3-1.6-0.2-1.2,1.3-1.6c1.8-0.6,3.9-0.6,5.8-0.8
			c10.1-0.9,20.5-0.9,30.6,0c1.5,0.1,3.5,0.8,5,0.7c0.5,0,1.5,0.8,1-0.2c-0.4-0.8-0.6,0.3-1.2,1c-3.2,3.7-5.9,8.3-7.1,13
			c-1.6,6.6,0.1,13.3,3.9,18.9c2,2.9,4.4,5.2,5.2,8.6c0.8,3.2,0.4,6.6-0.5,9.7c-2.7,9.4-9.5,18.1-16.5,24.8c0.8,0.5,1.7,1,2.5,1.5
			c0.5-2.8,2.2-5.4,3.1-8.1c1.4-4.1,2.3-8.5,1.7-12.8c-0.6-4.4-2.8-8.1-6.2-10.9c-5.4-4.5-11.2-8.2-16.2-13.3
			c-1.3-1.4-3.5,0.7-2.1,2.1c3.8,3.9,7.9,7.4,12.3,10.6c5,3.7,9.1,7,9.3,13.7c0.2,6.7-3.7,11.7-4.9,17.9c-0.3,1.4,1.4,2.5,2.5,1.5
			c6.9-6.7,13.4-15.1,16.7-24.2c2.1-5.7,2.6-12.2-0.6-17.6c-2.6-4.4-6.1-7.7-7.4-12.9c-1.1-4.7-0.2-9.5,2-13.7
			c1.2-2.4,2.9-4.6,4.5-6.8c0.7-1,2.1-2.3,1.8-3.7c-0.6-2.4-5.4-2.4-7.3-2.6c-11.6-1.2-24-1.3-35.6,0.3c-3.3,0.5-5.8,0.7-6.5,4.3
			c-1.7,8.6,1.8,17.6,6.4,24.7C53.6,63.9,56.2,62.4,55.1,60.8L55.1,60.8z"/>
	</g>
</g>
</svg>
