<?xml version="1.0" encoding="utf-8"?>
<!-- Generator: Adobe Illustrator 21.1.0, SVG Export Plug-In . SVG Version: 6.00 Build 0)  -->
<svg version="1.1" id="Layer_1" xmlns="http://www.w3.org/2000/svg" xmlns:xlink="http://www.w3.org/1999/xlink" x="0px" y="0px"
	 viewBox="0 0 150 150" style="enable-background:new 0 0 150 150;" xml:space="preserve">
<style type="text/css">
	.st0{fill:#424242;}
</style>
<g>
	<g>
		<g>
			<path class="st0" d="M54.1,37.5c-1.1,5.2-0.9,10.8,1.8,15.5c0.4,0.7,1.7,1.9,1.9,2.7c0.3,0.9-0.1,2.3,0,3.3c0.3,3,1.4,5.7,3,8.2
				c0.6,0.9,1.6,0.9,2.4,0.3c0,0,0,0,0,0c-0.8-0.5-1.7-1-2.5-1.5c-1.1,3.7-1,7.2,0.4,10.9c0.2,0.6,0.7,1.1,1.4,1.1
				c8.3,0,16.7-0.1,25-0.1c0.7,0,1.2-0.5,1.4-1.1c1.4-3.6,1.4-7.1,0.4-10.8c-0.9,0.4-1.8,0.8-2.7,1.2c0,0,0,0,0,0c0.6,1,2,0.9,2.6,0
				c2-3.2,2.6-6.2,3.1-9.9c0.4-3.3,2.9-6.2,3.7-9.6c1.4-6,0.2-12.5-3.7-17.3C83.8,20,66.6,20.4,57.8,30.3c-1.3,1.4,0.8,3.6,2.1,2.1
				c7.9-8.9,24.3-9.3,31.1,1.4c3.2,5,3.3,11.7,0.7,17.1c-0.9,1.8-2,3.2-2.5,5c-0.3,1.2,0,3.5-0.2,4.4c-0.4,2-1.3,3.8-2.4,5.5
				c0.9,0,1.7,0,2.6,0c0,0,0,0,0,0c-0.8-1.5-3.2-0.5-2.7,1.2c0.9,3.2,0.8,6.1-0.4,9.2c0.5-0.4,1-0.7,1.4-1.1c-8.3,0-16.7,0.1-25,0.1
				c0.5,0.4,1,0.7,1.4,1.1c-1.2-3.1-1.4-6.1-0.4-9.3c0.5-1.6-1.4-2.3-2.5-1.5c0,0,0,0,0,0c0.8,0.1,1.6,0.2,2.4,0.3
				c-1.9-2.9-2.6-5.5-2.7-8.9c-0.1-1.6,0.1-1.6-0.5-2.8c-1-2.1-2.5-3.6-3.1-5.9c-0.9-3.2-0.8-6.6-0.1-9.8
				C57.4,36.4,54.5,35.6,54.1,37.5L54.1,37.5z"/>
		</g>
	</g>
	<g>
		<g>
			<path class="st0" d="M59.7,126.6c2.3-4.4,4.6-8.8,6.9-13.2c0.9-1.7-1.7-3.2-2.6-1.5c-2.3,4.4-4.6,8.8-6.9,13.2
				C56.2,126.8,58.8,128.3,59.7,126.6L59.7,126.6z"/>
		</g>
	</g>
	<g>
		<g>
			<path class="st0" d="M53.3,126.6c4.1-8.8,8.2-17.6,12.4-26.4c0.8-1.7-1.8-3.3-2.6-1.5c-4.1,8.8-8.2,17.6-12.4,26.4
				C49.9,126.8,52.5,128.3,53.3,126.6L53.3,126.6z"/>
		</g>
	</g>
	<g>
		<g>
			<path class="st0" d="M56.5,92.2c1.4-2.8,2.8-5.6,4.2-8.3c0.8-1.7,2-3.4,2.6-5.2c0.2-0.4,0.5-0.8,0.6-1.3c0,0.1-1.8,0.5-0.8,0.6
				c3.4,0.4,7.1,0,10.5,0c3.9,0,8,0.3,12,0c2.5-0.2,1.1,0.6,0.7-0.7c0.2,0.5,0.5,0.9,0.7,1.4c1,2.6,2.5,5,3.7,7.5c4,8,8,16,12,24.1
				c2.7,5.4,5.4,10.9,8.1,16.3c0.4-0.8,0.9-1.5,1.3-2.3c-24.8,0-49.6,0-74.4,0c0.4,0.8,0.9,1.5,1.3,2.3c4.8-9.4,9.5-18.9,14.3-28.3
				c0.9-1.7-1.7-3.2-2.6-1.5c-4.8,9.4-9.5,18.9-14.3,28.3c-0.5,1,0.1,2.3,1.3,2.3c24.8,0,49.6,0,74.4,0c1.2,0,1.8-1.3,1.3-2.3
				c-8.2-16.4-16.4-32.9-24.6-49.3c-0.2-0.5-0.8-0.7-1.3-0.7c-8.3,0-16.6,0-24.9,0c-0.5,0-1.1,0.3-1.3,0.7c-2.5,5-5,10-7.5,14.9
				C53,92.4,55.6,93.9,56.5,92.2L56.5,92.2z"/>
		</g>
	</g>
</g>
</svg>
