<?xml version="1.0" encoding="utf-8"?>
<!-- Generator: Adobe Illustrator 21.1.0, SVG Export Plug-In . SVG Version: 6.00 Build 0)  -->
<svg version="1.1" id="Layer_1" xmlns="http://www.w3.org/2000/svg" xmlns:xlink="http://www.w3.org/1999/xlink" x="0px" y="0px"
	 viewBox="0 0 100 100" style="enable-background:new 0 0 100 100;" xml:space="preserve">
<style type="text/css">
	.st0{fill:#424242;}
</style>
<g>
	<g>
		<path class="st0" d="M86.1,50c-0.3,15.1-9.6,28.9-24,34C48,89,31.9,84.6,22.3,73.1c-9.7-11.5-11.1-28.4-3.5-41.3
			C26.5,18.7,42.1,11.6,57,14.6C73.9,18,85.8,32.9,86.1,50c0,1.9,3,1.9,3,0c-0.3-16.3-10.2-30.9-25.6-36.7
			c-15.6-5.8-33.8-0.6-44.1,12.4C9.5,38.2,8.2,56,16.3,69.7c8.3,14.1,24.8,21.6,40.9,18.7C75.7,85,88.7,68.6,89.1,50
			C89.1,48.1,86.1,48.1,86.1,50z"/>
	</g>
</g>
<g>
	<g>
		<g>
			<path class="st0" d="M40.4,32.4c-0.5,2.6-0.2,4.6,0.7,7c0.8,2.1,0.6,1,1,3.3c0.2,1.2,0.7,2,1.3,3.1c0.2,0.3,0.5,0.5,0.9,0.5
				c0,0,0,0,0,0c-0.3-0.4-0.7-0.9-1-1.3c-0.5,1.8-0.4,3.3,0.2,5c0.1,0.4,0.5,0.8,1,0.8c3.7,0,7.3,0,11-0.1c0.5,0,0.9-0.3,1-0.8
				c0.5-1.7,0.6-3.2,0.2-4.9c-0.6,0.3-1.3,0.5-1.9,0.8c0,0,0,0,0,0c0.4,0.7,1.4,0.7,1.8,0c0.9-1.6,0.9-2.9,1.4-4.6
				c0.5-1.7,1.4-3,1.7-4.7c0.5-2.7-0.2-5.5-2-7.6c-4.1-4.7-11.5-4.1-15.6,0.1c-0.9,1,0.5,2.5,1.5,1.5c3.7-3.9,11-4,13.5,1.4
				c1.4,3-0.3,5.1-1.1,7.9c-0.6,2,0.4,2-1.2,4.9c0.6,0,1.2,0,1.8,0c0,0,0,0,0,0c-0.5-1.1-2.2-0.3-1.9,0.8c0.6,2.4,1.3,2.7-0.5,3.1
				c-1.2,0.3-2.8,0-4.1,0c-1.2,0-2.6,0.2-3.8,0c-2.2-0.4-1.7-0.1-0.9-3.1c0.2-0.7-0.3-1.3-1-1.3c-0.1,0-0.2-3.7-0.4-4.5
				c-0.1-0.2-0.5-0.7-0.6-0.8c-0.7-2-1.4-3.7-0.9-5.9C42.7,31.7,40.7,31.1,40.4,32.4L40.4,32.4z"/>
		</g>
	</g>
	<g>
		<g>
			<path class="st0" d="M43.6,71.9c1-1.9,2-3.9,3-5.8c0.6-1.2-1.2-2.3-1.8-1.1c-1,1.9-2,3.9-3,5.8C41.2,72,43,73.1,43.6,71.9
				L43.6,71.9z"/>
		</g>
	</g>
	<g>
		<g>
			<path class="st0" d="M40.8,71.9c1.8-3.9,3.6-7.7,5.4-11.6c0.6-1.2-1.2-2.3-1.8-1.1c-1.8,3.9-3.6,7.7-5.4,11.6
				C38.4,72,40.2,73.1,40.8,71.9L40.8,71.9z"/>
		</g>
	</g>
	<g>
		<g>
			<path class="st0" d="M42.2,56.8c0.8-1.6,1.9-3.2,2.5-4.9c0.3-1,1.5-1.7,0.1-1.2c0.5-0.2,1.6,0,2.2,0c2.3,0,4.9,0.4,7.1,0
				c1.1-0.2,1.7,0.6,0.6-0.5c0.2,0.2,0.5,0.8,0.5,1c0.9,4,4.1,8.3,5.9,11.9c1.4,2.9,2.9,5.8,4.3,8.7c0.3-0.5,0.6-1.1,0.9-1.6
				c-10.9,0-21.8,0-32.7,0c0.3,0.5,0.6,1.1,0.9,1.6c2.1-4.2,4.2-8.3,6.3-12.5c0.6-1.2-1.2-2.3-1.8-1.1c-2.1,4.2-4.2,8.3-6.3,12.5
				c-0.4,0.7,0.1,1.6,0.9,1.6c10.9,0,21.8,0,32.7,0c0.8,0,1.3-0.9,0.9-1.6c-3.6-7.2-7.2-14.4-10.8-21.7c-0.2-0.3-0.6-0.5-0.9-0.5
				c-3.6,0-7.3,0-10.9,0c-0.4,0-0.7,0.2-0.9,0.5c-1.1,2.2-2.2,4.4-3.3,6.6C39.8,56.9,41.6,58,42.2,56.8L42.2,56.8z"/>
		</g>
	</g>
</g>
</svg>
