<?xml version="1.0" encoding="utf-8"?>
<!-- Generator: Adobe Illustrator 21.1.0, SVG Export Plug-In . SVG Version: 6.00 Build 0)  -->
<svg version="1.1" id="Layer_1" xmlns="http://www.w3.org/2000/svg" xmlns:xlink="http://www.w3.org/1999/xlink" x="0px" y="0px"
	 viewBox="0 0 150 150" style="enable-background:new 0 0 150 150;" xml:space="preserve">
<style type="text/css">
	.st0{fill:#424242;}
</style>
<g>
	<g>
		<path class="st0" d="M98.7,89.8c0.8-1.9,2-1.8,3.6,0.2c2.6,0.3,3.3,1.3,2,2.9c-0.5,2.3-2.9,3.2-5,3.3c-3.3,0-6.4-2.3-7.2-5.5
			c-1.5-5.6,3.1-9.3,8.1-9.5c4.6-0.2,9.3,0,14,0c-0.3-0.9-0.5-1.9-0.8-2.8c-3.8,2.1-7.6,4.3-11.4,6.4c-1.7,0.9-0.2,3.5,1.5,2.6
			c3.8-2.1,7.6-4.3,11.4-6.4c1.3-0.7,0.7-2.8-0.8-2.8c-4.9,0-9.9-0.3-14.9,0c-7.6,0.5-13,8.1-9.3,15.3c3.2,6.3,14,8.4,17.3,0.9
			c3.3-7.5-5.5-13.2-10.7-6.8C95.4,89.1,97.5,91.3,98.7,89.8L98.7,89.8z"/>
	</g>
</g>
<g>
	<g>
		<path class="st0" d="M49.2,63.1c5.2,6.4,14.1,0.7,10.7-6.8c-3.4-7.4-14-5.4-17.3,0.9c-3.7,7.2,1.8,14.8,9.3,15.3
			c4.9,0.3,9.9,0,14.9,0c1.5,0,2.1-2.1,0.8-2.8c-3.8-2.1-7.6-4.3-11.4-6.4c-1.7-0.9-3.2,1.6-1.5,2.6c3.8,2.1,7.6,4.3,11.4,6.4
			c0.3-0.9,0.5-1.9,0.8-2.8c-4.7,0-9.3,0.2-14,0c-4.7-0.2-9-3.2-8.2-8.5c0.5-3.3,3-5.9,6.4-6.4c1.8-0.2,4.1,0.2,5.4,1.6
			c3.1,3.5-2.3,8.1-5,4.7C50.1,59.5,48,61.6,49.2,63.1L49.2,63.1z"/>
	</g>
</g>
<g>
	<g>
		<path class="st0" d="M55.2,97.1c2.9-4,7.3-6.4,11.7-2.9c3.1,2.4,3.9,6.8,2.8,10.4c-2.2,7.2-10.6,9.5-17.2,7.6
			c-14-4.2-15.6-24.1-2.6-30.6c5.7-2.9,13.6-1.8,19.8-1.8c5.8,0,11.6,0,17.4,0c-0.3-0.9-0.5-1.9-0.8-2.8
			c-7.6,4.3-15.3,8.6-22.9,12.8c-1.7,0.9-0.2,3.5,1.5,2.6c7.6-4.3,15.3-8.6,22.9-12.8c1.3-0.7,0.7-2.8-0.8-2.8c-7.3,0-14.7,0-22,0
			c-8.5,0-16.8-0.1-22.8,7.1c-7.2,8.7-5.3,22.1,4,28.5c8.8,6.1,23.6,4,26.5-7.6c1.4-5.5-0.6-11.7-5.9-14.3c-5.7-2.8-10.8,0.4-14.3,5
			C51.4,97.1,54,98.6,55.2,97.1L55.2,97.1z"/>
	</g>
</g>
<g>
	<g>
		<path class="st0" d="M66.2,48.1C62.7,62,72.8,73.1,86.6,73.2c9.4,0,18.7,0,28.1,0c1.5,0,2.1-2.1,0.8-2.8
			c-7.6-4.3-15.3-8.6-22.9-12.8c-1.7-0.9-3.2,1.6-1.5,2.6c7.6,4.3,15.3,8.6,22.9,12.8c0.3-0.9,0.5-1.9,0.8-2.8c-7.8,0-15.6,0-23.3,0
			c-3.2,0-6.8,0.3-10-0.4c-9.6-2.1-14.6-11.7-12.3-21C69.6,47,66.7,46.2,66.2,48.1L66.2,48.1z"/>
	</g>
</g>
<g>
	<g>
		<path class="st0" d="M80.2,54.4c3.2,4.4,7.9,7.6,13.5,5.4c5.4-2.1,7.8-8,6.9-13.5C98.3,32,80.1,31.7,71.2,39.7
			c-1.4,1.3,0.7,3.4,2.1,2.1c6.3-5.7,18-7.1,22.9,1.2c5.6,9.6-5.9,20.1-13.5,9.8C81.7,51.4,79.1,52.9,80.2,54.4L80.2,54.4z"/>
	</g>
</g>
</svg>
