<?xml version="1.0" encoding="utf-8"?>
<!-- Generator: Adobe Illustrator 21.1.0, SVG Export Plug-In . SVG Version: 6.00 Build 0)  -->
<svg version="1.1" id="Layer_1" xmlns="http://www.w3.org/2000/svg" xmlns:xlink="http://www.w3.org/1999/xlink" x="0px" y="0px"
	 viewBox="0 0 100 100" style="enable-background:new 0 0 100 100;" xml:space="preserve">
<style type="text/css">
	.st0{fill:#424242;}
</style>
<g>
	<g>
		<path class="st0" d="M86.1,50c-0.3,15.1-9.6,28.9-24,34C48,89,31.9,84.6,22.3,73.1c-9.7-11.5-11.1-28.4-3.5-41.3
			C26.5,18.7,42.1,11.6,57,14.6C73.9,18,85.8,32.9,86.1,50c0,1.9,3,1.9,3,0c-0.3-16.3-10.2-30.9-25.6-36.7
			c-15.6-5.8-33.8-0.6-44.1,12.4C9.5,38.2,8.2,56,16.3,69.7c8.3,14.1,24.8,21.6,40.9,18.7C75.7,85,88.7,68.6,89.1,50
			C89.1,48.1,86.1,48.1,86.1,50z"/>
	</g>
</g>
<g>
	<g>
		<g>
			<path class="st0" d="M61.8,58.2c0.4-1,1-0.9,1.8,0c1.2,0.2,1.5,0.6,0.9,1.4c-0.2,1.1-1.5,1.6-2.5,1.6c-1.7,0-3.2-1.2-3.7-2.8
				c-0.8-2.9,1.6-4.8,4.2-4.9c2.5-0.1,5.1,0,7.6,0c-0.2-0.7-0.4-1.3-0.5-2c-2.1,1.2-4.1,2.3-6.2,3.5c-1.2,0.7-0.1,2.5,1.1,1.8
				c2.1-1.2,4.1-2.3,6.2-3.5c0.9-0.5,0.5-2-0.5-2c-2.7,0-5.4-0.2-8.1,0c-4.3,0.3-7.4,4.6-5.3,8.6c1.9,3.6,7.9,4.7,9.8,0.5
				c1.9-4.3-3.2-7.7-6.2-4C59.5,57.7,61,59.2,61.8,58.2L61.8,58.2z"/>
		</g>
	</g>
	<g>
		<g>
			<path class="st0" d="M34.6,43.7c3,3.7,8.1,0.3,6.2-4c-1.9-4.2-7.9-3.1-9.8,0.5c-2.1,4,1,8.4,5.3,8.6c2.7,0.2,5.4,0,8.1,0
				c1,0,1.4-1.4,0.5-2c-2.1-1.2-4.1-2.3-6.2-3.5c-1.2-0.7-2.2,1.2-1.1,1.8c2.1,1.2,4.1,2.3,6.2,3.5c0.2-0.7,0.4-1.3,0.5-2
				c-2.5,0-5.1,0.1-7.6,0c-2.4-0.1-4.6-1.6-4.2-4.3c0.2-1.7,1.5-3,3.3-3.3c0.9-0.1,2.1,0.1,2.7,0.8c1.5,1.7-1,3.9-2.4,2.2
				C35.2,41.2,33.8,42.7,34.6,43.7L34.6,43.7z"/>
		</g>
	</g>
	<g>
		<g>
			<path class="st0" d="M38,62.3c1-2.1,2.5-2,4.5,0.5c3.9,0.6,4.5,2.4,1.8,5.4c-1.2,1.3-3.5,2.1-5.2,2.1c-4.4,0-8-3.3-8.6-7.6
				c-0.8-6.2,4.1-9.7,9.7-9.9c5-0.2,10,0,15,0c-0.2-0.7-0.4-1.3-0.5-2c-4.1,2.3-8.3,4.6-12.4,7c-1.2,0.7-0.1,2.5,1.1,1.8
				c4.1-2.3,8.3-4.6,12.4-7c0.9-0.5,0.5-2-0.5-2c-5.3,0-10.7-0.3-16.1,0c-7.6,0.4-13.2,7.8-10,15.2c3,6.9,14.5,9.5,18.1,1.6
				c3.4-7.6-5.5-13.1-10.7-6.7C35.7,61.9,37.2,63.4,38,62.3L38,62.3z"/>
		</g>
	</g>
	<g>
		<g>
			<path class="st0" d="M43.8,35.3c-1.7,7.4,3.1,13.6,10.7,13.9c5.3,0.2,10.6,0,15.8,0c1,0,1.4-1.4,0.5-2c-4.1-2.3-8.3-4.6-12.4-7
				c-1.2-0.7-2.2,1.2-1.1,1.8c4.1,2.3,8.3,4.6,12.4,7c0.2-0.7,0.4-1.3,0.5-2c-8.3,0-27.7,3-24.5-11.3C46.1,34.6,44,34,43.8,35.3
				L43.8,35.3z"/>
		</g>
	</g>
	<g>
		<g>
			<path class="st0" d="M51.4,39c1.9,2.5,4.6,4.4,7.8,2.9c3-1.4,4.3-4.9,3.5-8c-1.8-7.5-11.4-7.6-16.2-3.2c-1,0.9,0.5,2.4,1.5,1.5
				c3.2-2.8,8.7-3.7,11.6,0c3.7,4.7-2.2,11.5-6.4,5.7C52.4,36.8,50.6,37.9,51.4,39L51.4,39z"/>
		</g>
	</g>
</g>
</svg>
